<svg xmlns="http://www.w3.org/2000/svg" xmlns:xlink="http://www.w3.org/1999/xlink" width="500" zoomAndPan="magnify" viewBox="0 0 375 374.999991" height="500" preserveAspectRatio="xMidYMid meet" version="1.0"><path fill="#ffffff" d="M 199.324219 6.988281 C 90.285156 0.015625 0.015625 90.28125 6.988281 199.324219 C 12.75 289.453125 85.550781 362.25 175.679688 368.015625 C 284.71875 374.984375 374.984375 284.722656 368.015625 175.679688 C 362.25 85.550781 289.449219 12.75 199.324219 6.988281 Z M 269.40625 277.257812 C 276.519531 252.816406 280.765625 224.699219 281.335938 194.457031 L 354.300781 194.457031 C 352.703125 233.234375 337.816406 268.617188 314.085938 296.210938 C 303.195312 288.582031 287.976562 282.132812 269.40625 277.257812 Z M 60.917969 296.210938 C 37.1875 268.617188 22.296875 233.234375 20.703125 194.457031 L 93.667969 194.457031 C 94.234375 224.699219 98.480469 252.816406 105.597656 277.257812 C 87.019531 282.136719 71.800781 288.582031 60.917969 296.210938 Z M 105.558594 97.867188 C 98.464844 122.28125 94.230469 150.351562 93.664062 180.542969 L 20.703125 180.542969 C 22.292969 141.949219 37.042969 106.71875 60.578125 79.179688 C 71.648438 86.683594 86.976562 93.042969 105.558594 97.867188 Z M 180.542969 180.542969 L 107.578125 180.542969 C 108.175781 151.75 112.457031 124.570312 119.453125 101.0625 C 138.257812 104.855469 159.113281 107.015625 180.542969 107.402344 Z M 180.542969 194.457031 L 180.542969 267.601562 C 159.070312 267.988281 138.21875 270.179688 119.480469 274.019531 C 112.46875 250.492188 108.179688 223.285156 107.578125 194.457031 Z M 194.457031 194.457031 L 267.421875 194.457031 C 266.824219 223.285156 262.53125 250.492188 255.523438 274.019531 C 236.773438 270.179688 215.925781 267.988281 194.457031 267.601562 Z M 194.457031 180.542969 L 194.457031 107.398438 C 215.886719 107.015625 236.742188 104.851562 255.546875 101.058594 C 262.542969 124.570312 266.824219 151.75 267.421875 180.542969 Z M 194.457031 93.488281 L 194.457031 21.226562 C 217.308594 25.566406 237.753906 50.941406 251.160156 87.765625 C 233.675781 91.175781 214.339844 93.117188 194.457031 93.488281 Z M 180.542969 21.226562 L 180.542969 93.488281 C 160.660156 93.117188 141.324219 91.175781 123.839844 87.765625 C 137.246094 50.941406 157.691406 25.5625 180.542969 21.226562 Z M 180.542969 281.515625 L 180.542969 353.777344 C 157.707031 349.441406 137.273438 324.097656 123.867188 287.3125 C 141.292969 283.855469 160.625 281.890625 180.542969 281.515625 Z M 194.457031 353.773438 L 194.457031 281.515625 C 214.371094 281.890625 233.699219 283.855469 251.132812 287.3125 C 237.726562 324.09375 217.292969 349.441406 194.457031 353.773438 Z M 281.335938 180.542969 C 280.769531 150.351562 276.535156 122.28125 269.445312 97.863281 C 288.027344 93.039062 303.351562 86.683594 314.421875 79.179688 C 337.957031 106.714844 352.707031 141.949219 354.296875 180.542969 Z M 304.804688 68.804688 C 295.0625 74.976562 281.433594 80.417969 265.191406 84.585938 C 256.460938 59.902344 244.609375 39.816406 230.644531 26.203125 C 259.042969 33.808594 284.476562 48.71875 304.804688 68.804688 Z M 109.8125 84.589844 C 93.570312 80.421875 79.941406 74.980469 70.199219 68.808594 C 90.523438 48.71875 115.960938 33.8125 144.359375 26.207031 C 130.394531 39.816406 118.539062 59.90625 109.8125 84.589844 Z M 70.550781 306.53125 C 80.082031 300.269531 93.605469 294.75 109.851562 290.53125 C 118.578125 315.160156 130.414062 335.203125 144.359375 348.796875 C 116.121094 341.234375 90.816406 326.445312 70.550781 306.53125 Z M 265.148438 290.53125 C 281.390625 294.75 294.917969 300.269531 304.449219 306.53125 C 284.183594 326.449219 258.882812 341.234375 230.640625 348.796875 C 244.585938 335.203125 256.417969 315.160156 265.148438 290.53125 Z M 265.148438 290.53125 " fill-opacity="1" fill-rule="nonzero"/></svg>