<svg xmlns="http://www.w3.org/2000/svg" xmlns:xlink="http://www.w3.org/1999/xlink" width="500" zoomAndPan="magnify" viewBox="0 0 375 374.999991" height="500" preserveAspectRatio="xMidYMid meet" version="1.0"><defs><clipPath id="01aa1502e9"><path d="M 99 56.53125 L 276 56.53125 L 276 199 L 99 199 Z M 99 56.53125 " clip-rule="nonzero"/></clipPath><clipPath id="55ca8c78da"><path d="M 99 158 L 276 158 L 276 300.457031 L 99 300.457031 Z M 99 158 " clip-rule="nonzero"/></clipPath><clipPath id="a2edee7e99"><path d="M 10.066406 12.113281 L 364.949219 12.113281 L 364.949219 362.886719 L 10.066406 362.886719 Z M 10.066406 12.113281 " clip-rule="nonzero"/></clipPath><clipPath id="5859152203"><path d="M 187.5 12.113281 C 89.507812 12.113281 10.066406 90.636719 10.066406 187.5 C 10.066406 284.363281 89.507812 362.886719 187.5 362.886719 C 285.492188 362.886719 364.933594 284.363281 364.933594 187.5 C 364.933594 90.636719 285.492188 12.113281 187.5 12.113281 Z M 187.5 12.113281 " clip-rule="nonzero"/></clipPath></defs><g clip-path="url(#01aa1502e9)"><path fill="#ffffff" d="M 208.945312 196.605469 L 273.527344 132.023438 C 275.953125 129.597656 275.953125 125.605469 273.527344 123.179688 L 209.023438 58.675781 C 206.597656 56.25 202.605469 56.25 200.179688 58.675781 C 197.75 61.101562 197.75 65.09375 200.179688 67.523438 L 253.957031 121.378906 L 105.304688 121.378906 C 101.859375 121.378906 99.042969 124.195312 99.042969 127.640625 C 99.042969 131.085938 101.859375 133.902344 105.304688 133.902344 L 253.957031 133.902344 L 200.101562 187.757812 C 198.847656 189.011719 198.300781 190.578125 198.300781 192.222656 C 198.300781 193.863281 198.925781 195.429688 200.101562 196.683594 C 202.527344 199.03125 206.519531 199.03125 208.945312 196.605469 Z M 208.945312 196.605469 " fill-opacity="1" fill-rule="nonzero"/></g><g clip-path="url(#55ca8c78da)"><path fill="#ffffff" d="M 166.046875 160.386719 L 101.46875 224.964844 C 99.042969 227.390625 99.042969 231.382812 101.46875 233.8125 L 165.96875 298.3125 C 168.398438 300.738281 172.390625 300.738281 174.816406 298.3125 C 177.242188 295.886719 177.242188 291.894531 174.816406 289.46875 L 121.039062 235.613281 L 269.691406 235.613281 C 273.132812 235.613281 275.953125 232.792969 275.953125 229.347656 C 275.953125 225.90625 273.132812 223.085938 269.691406 223.085938 L 121.039062 223.085938 L 174.894531 169.230469 C 176.148438 167.976562 176.695312 166.414062 176.695312 164.769531 C 176.695312 163.125 176.070312 161.558594 174.894531 160.308594 C 172.46875 157.957031 168.476562 157.957031 166.046875 160.386719 Z M 166.046875 160.386719 " fill-opacity="1" fill-rule="nonzero"/></g><g clip-path="url(#a2edee7e99)"><g clip-path="url(#5859152203)"><path fill="#ffffff" d="M 10.066406 12.113281 L 364.949219 12.113281 L 364.949219 362.886719 L 10.066406 362.886719 Z M 10.066406 12.113281 " fill-opacity="1" fill-rule="nonzero"/></g></g><path fill="#356aff" d="M 187.5 0 C 83.75 0 0 83.75 0 187.5 C 0 291.25 83.75 375 187.5 375 C 291.25 375 375 291.25 375 187.5 C 375 83.75 291.25 0 187.5 0 Z M 276.667969 244.167969 L 123.75 244.167969 L 161.25 275.417969 C 165 278.75 165.832031 284.582031 162.5 288.332031 C 160.832031 290.417969 157.917969 291.667969 155.417969 291.667969 C 153.332031 291.667969 151.25 290.832031 149.582031 289.582031 L 92.5 242.082031 C 92.5 242.082031 92.5 241.667969 92.082031 241.667969 C 91.25 241.25 90.832031 240.417969 90.417969 239.582031 C 90.417969 239.167969 90 239.167969 90 238.75 C 89.582031 237.5 89.167969 236.25 89.167969 235 C 89.167969 233.75 89.582031 232.5 90 231.25 C 90 230.832031 90.417969 230.832031 90.417969 230.417969 C 90.832031 229.582031 91.25 228.75 92.082031 228.332031 C 92.082031 228.332031 92.082031 227.917969 92.5 227.917969 L 149.167969 180.417969 C 152.917969 177.082031 158.75 177.5 162.082031 181.667969 C 165.417969 185.417969 165 191.25 160.832031 194.582031 L 123.332031 225.832031 L 276.25 225.832031 C 281.25 225.832031 285.417969 230 285.417969 235 C 285.417969 240 281.667969 244.167969 276.667969 244.167969 Z M 285 143.75 C 285 144.167969 284.582031 144.167969 284.582031 144.582031 C 284.167969 145.417969 283.75 146.25 282.917969 146.667969 C 282.917969 146.667969 282.917969 147.082031 282.5 147.082031 L 225.832031 194.582031 C 224.167969 195.832031 222.082031 196.667969 220 196.667969 C 217.5 196.667969 214.582031 195.417969 212.917969 193.332031 C 209.582031 189.582031 210 183.75 214.167969 180.417969 L 251.667969 149.167969 L 98.332031 149.167969 C 93.332031 149.167969 89.167969 145 89.167969 140 C 89.167969 135 93.332031 130.832031 98.332031 130.832031 L 251.25 130.832031 L 213.75 99.582031 C 210 96.25 209.167969 90.417969 212.5 86.667969 C 215.832031 82.917969 221.667969 82.082031 225.417969 85.417969 L 282.082031 132.917969 C 282.082031 132.917969 282.082031 133.332031 282.5 133.332031 C 283.332031 133.75 283.75 134.582031 284.167969 135.417969 C 284.167969 135.832031 284.582031 135.832031 284.582031 136.25 C 285 137.5 285.417969 138.75 285.417969 140 C 285.832031 141.25 285.417969 142.5 285 143.75 Z M 285 143.75 " fill-opacity="1" fill-rule="nonzero"/></svg>